# xmcd
#
# Track frame offsets:
#	150
#	10300
#	24137
#	39701
#	56155
#	69547
#	81854
#	96988
#	105236
#	113119
#	131289
#	158662
#	176509
#	186708
#	204201
#	221909
#	235795
#
# Disc length: 3563 seconds
#
# Revision: 2
# Processed by: cddbd v1.5.2PL0 Copyright (c) Steve Scherf et al.
# Submitted via: audiograbber 1.83.01
#
DISCID=e20de911
DTITLE=Nemesea - Pure Live @ P3
DYEAR=2009
DGENRE=Symphonic Metal
TTITLE0=Intro (live)
TTITLE1=In Control (live)
TTITLE2=No More (live)
TTITLE3=Lost Inside (live)
TTITLE4=Home (live)
TTITLE5=2012 (live)
TTITLE6=Never (live)
TTITLE7=Frozen Crystals - Improvisation (live)
TTITLE8=Bass solo (live)
TTITLE9=The Way I Feel (live)
TTITLE10=Believe - Guitar Solo (live)
TTITLE11=Lucifer (live)
TTITLE12=Drum Solo (live)
TTITLE13=Broken (live)
TTITLE14=Angel In The dark (live)
TTITLE15=Like The Air (live)
TTITLE16=No Good (Start The Dance) (live)
EXTD=
EXTT0=
EXTT1=
EXTT2=
EXTT3=
EXTT4=
EXTT5=
EXTT6=
EXTT7=
EXTT8=
EXTT9=
EXTT10=
EXTT11=
EXTT12=
EXTT13=
EXTT14=
EXTT15=
EXTT16=
PLAYORDER=
